PathFileType	4	(X/Y/Z)	./resultDataOpenSim/trcMotMarkerGrf/sub10/qtm-05-04.trc
DataRate	CameraRate	NumFrames	NumMarkers	Units	OrigDataRate	OrigDataStartFrame	OrigNumFrames
250.000000	250.000000	8	24	m	250.000000	323	516
Frame#	Time	L.Toe.Tip			R.Toe.Tip			L.Ankle.Lat			R.Ankle.Lat			L.Ankle.Med			R.Ankle.Med			L.Heel			R.Heel			L.Knee.Lat			R.Knee.Lat			L.Knee.Med			R.Knee.Med			L.Thigh.Upper			R.Thigh.Upper			L.ASIS			R.ASIS			V.Sacral			L.Acromium			R.Acromium			C7			L.Elbow			R.Elbow			L.Wrist.Lat			R.Wrist.Lat
		X1	Y1	Z1	X2	Y2	Z2	X3	Y3	Z3	X4	Y4	Z4	X5	Y5	Z5	X6	Y6	Z6	X7	Y7	Z7	X8	Y8	Z8	X9	Y9	Z9	X10	Y10	Z10	X11	Y11	Z11	X12	Y12	Z12	X13	Y13	Z13	X14	Y14	Z14	X15	Y15	Z15	X16	Y16	Z16	X17	Y17	Z17	X18	Y18	Z18	X19	Y19	Z19	X20	Y20	Z20	X21	Y21	Z21	X22	Y22	Z22	X23	Y23	Z23	X24	Y24	Z24

323	1.288	0.039805779	-0.058587076	-0.115494	0.88501456	0.039530089	0.037629681	-0.010533141	0.063725595	-0.16499793	0.7464213	0.056676929	0.089675797	0.019460893	0.072562987	-0.087876264	0.75761476	0.076700278	0.0017393308	-0.061717859	0.09584372	-0.11499551	0.69229986	0.02937734	0.052100481	0.22561478	0.37560898	-0.18530832	0.74544127	0.45147754	0.079968157	0.24298496	0.33273609	-0.069300667	0.73415722	0.45379108	-0.048496756	0.37765905	0.7271405	-0.21856544	0.51720701	0.77963795	0.14918087	0.47801978	0.81888445	-0.17900792	0.55672143	0.8508216	0.050649505	0.32685469	0.86395076	-0.0052087232	0.52215124	1.3170318	-0.18048345	0.51965947	1.2940759	0.13599604	0.43880256	1.3401507	-0.026738811	0.5303569	0.96663112	-0.24404103	0.30508634	1.0241629	0.14384034	0.75529885	0.96598931	-0.13164361	0.27177875	0.81877275	0.26827963
324	1.292	0.041361563	-0.057825702	-0.11607991	0.88529789	0.039349243	0.037683041	-0.0044737102	0.065796142	-0.16603285	0.74667755	0.056628524	0.089563568	0.025992466	0.074002355	-0.088888941	0.7578801	0.076367653	0.0015472518	-0.054650322	0.099687268	-0.1157246	0.69242859	0.029420853	0.052105118	0.23339078	0.37542098	-0.18583296	0.75154695	0.45141387	0.078757309	0.25190901	0.33173827	-0.070463087	0.73938186	0.45423003	-0.049466196	0.38502771	0.72689663	-0.21862879	0.52392855	0.78079919	0.14903419	0.48536033	0.81896153	-0.17783892	0.56367514	0.85161728	0.051163684	0.33461818	0.86496144	-0.0053605447	0.52973552	1.3179334	-0.17912083	0.5268229	1.2947974	0.13701653	0.44599223	1.3408685	-0.025617969	0.53555168	0.9675953	-0.24365002	0.31399848	1.0242066	0.14462127	0.76041052	0.96347665	-0.13107834	0.28005145	0.8188688	0.2694556
325	1.296	0.04313581	-0.056659922	-0.11654769	0.88551359	0.039202832	0.037790187	0.0015878827	0.068162031	-0.16695751	0.74680502	0.056597627	0.08952524	0.032448732	0.075764083	-0.089750777	0.758022	0.076130809	0.0014432537	-0.047489422	0.10381606	-0.11656192	0.69252641	0.02944511	0.052175119	0.24219373	0.37512819	-0.18665071	0.75753217	0.45118045	0.077574887	0.26131457	0.33057635	-0.071801979	0.74467477	0.45449381	-0.050348474	0.39241437	0.72674528	-0.21866222	0.53062805	0.78189427	0.14892096	0.49261919	0.81908879	-0.17670264	0.5704792	0.85248125	0.051684555	0.3422303	0.86589404	-0.0054821224	0.53720654	1.3187996	-0.17783285	0.53388914	1.2955302	0.13799583	0.4530549	1.3415761	-0.02454963	0.54069009	0.96854946	-0.24331419	0.32261165	1.0242915	0.14554684	0.76548878	0.96085244	-0.1306043	0.2884199	0.81889623	0.27068017
326	1.3	0.045118874	-0.055226057	-0.11699859	0.88571235	0.039080981	0.037863584	0.0076667691	0.070837284	-0.16770559	0.74690347	0.056590023	0.089498304	0.038864038	0.077874921	-0.090431022	0.75813393	0.075964586	0.0013681637	-0.04019894	0.1081964	-0.11742542	0.69262211	0.029471559	0.052251956	0.25154022	0.37476928	-0.18760918	0.76336078	0.45078146	0.076493068	0.27113068	0.32936471	-0.073355834	0.74999231	0.45460587	-0.05114813	0.3998147	0.72671192	-0.21868882	0.53734442	0.78293189	0.14889434	0.49978835	0.81927564	-0.17561934	0.57708504	0.85343068	0.052250764	0.34937846	0.86685077	-0.0057243235	0.54456358	1.3196427	-0.17662701	0.54086325	1.2962767	0.13894352	0.45998534	1.3422812	-0.023546067	0.54578142	0.96953651	-0.24300137	0.33095567	1.0243278	0.14652514	0.7705252	0.95812155	-0.13024066	0.2969189	0.81884509	0.27196682
327	1.304	0.04727786	-0.053649239	-0.11751167	0.88590405	0.038978081	0.037879986	0.013808562	0.073811905	-0.16825408	0.7470396	0.056598304	0.089449704	0.045303191	0.08030592	-0.090926205	0.75828542	0.075830739	0.0012835916	-0.032789272	0.1127489	-0.11816121	0.69272902	0.029509049	0.052294332	0.26116219	0.37436283	-0.18861668	0.76901437	0.45023313	0.075552159	0.28130021	0.32813184	-0.075100163	0.7552718	0.45459365	-0.051891649	0.40718686	0.72680775	-0.21870803	0.54411829	0.78392491	0.14898303	0.50686482	0.81954728	-0.17460531	0.58355173	0.85442802	0.052855121	0.35589357	0.86800424	-0.0060409404	0.55180518	1.3204728	-0.17550676	0.54775867	1.2970485	0.13986566	0.46677554	1.3429975	-0.022621907	0.55084173	0.97058345	-0.24268615	0.33917332	1.0242248	0.14742307	0.77551058	0.95528263	-0.13001305	0.30558667	0.81871295	0.27331513
328	1.308	0.049589066	-0.051980203	-0.11811079	0.88608701	0.038886275	0.037865958	0.020048778	0.077066358	-0.16859968	0.74722829	0.056606728	0.08938104	0.05183417	0.082986954	-0.091250621	0.75849221	0.075694826	0.001182003	-0.025295709	0.1173908	-0.11861067	0.69284175	0.029554116	0.052298084	0.27100769	0.37393125	-0.1896544	0.77448134	0.44957193	0.074751401	0.29175775	0.32686371	-0.076925667	0.7604611	0.45444636	-0.052609943	0.41447749	0.72702807	-0.21867792	0.55097462	0.78488601	0.14918949	0.51384845	0.81993742	-0.17367044	0.59001607	0.85540159	0.053440512	0.36198192	0.86943208	-0.0062176202	0.55893201	1.3212973	-0.17447005	0.55458994	1.2978605	0.1407602	0.47342858	1.3437372	-0.021782614	0.55588609	0.97169186	-0.24237602	0.34735796	1.0239768	0.14823913	0.78043572	0.95234587	-0.12994284	0.31440986	0.81850807	0.27470188
329	1.312	0.052043895	-0.050207572	-0.11879005	0.88625241	0.03880481	0.037855641	0.026394635	0.080571708	-0.1687433	0.74744834	0.056600415	0.089311668	0.058497388	0.085847743	-0.091419087	0.75872699	0.07554425	0.001079732	-0.017734144	0.12207175	-0.1186876	0.69294199	0.029603242	0.052286047	0.28111586	0.37350415	-0.19075085	0.7797449	0.44884439	0.074065286	0.30244372	0.32557514	-0.078703339	0.76553147	0.45412458	-0.053349308	0.42166523	0.72737188	-0.21856424	0.55788874	0.78581406	0.14948396	0.52073669	0.82048124	-0.17282179	0.59653381	0.85631303	0.053963839	0.36806301	0.8709886	-0.0061424976	0.56594559	1.3221266	-0.17351274	0.56135551	1.2987206	0.1416215	0.47996441	1.344516	-0.021023067	0.56092731	0.97285273	-0.24209852	0.35552802	1.0236606	0.14909079	0.78529185	0.94932465	-0.13004216	0.323323	0.81824697	0.27609949
330	1.316	0.054659611	-0.048274938	-0.11951894	0.88638582	0.03873887	0.037865835	0.032841704	0.084287927	-0.16870102	0.74766449	0.056577663	0.089255798	0.065302173	0.08884867	-0.091442292	0.75895041	0.075391842	0.00099481628	-0.010083891	0.12678364	-0.11840713	0.69301345	0.029660159	0.052280313	0.29146324	0.3731113	-0.19188424	0.7847799	0.44808628	0.073465278	0.31330766	0.32431715	-0.080333027	0.77047326	0.45361103	-0.054147203	0.42876449	0.72784604	-0.21837221	0.56480049	0.78669156	0.14982034	0.52752426	0.82120886	-0.17206856	0.60303679	0.8571589	0.054411102	0.37437932	0.87244162	-0.0058834952	0.57284625	1.322971	-0.17263011	0.56803948	1.2996306	0.1424484	0.48640646	1.3453558	-0.020331698	0.56596666	0.97406077	-0.241865	0.36369227	1.0233603	0.15008028	0.79007273	0.9462032	-0.13029937	0.33228845	0.81794965	0.27749635
